#!OML:ASF F:\VICON\USERDATA\INSTALL\rory3\rory3.ASF
:FULLY-SPECIFIED
:DEGREES
101
root 1.431431795585467 17.86616364896677 53.49316589408247 -3.2922918525394715 -0.10968513347802267 1.7603372650232116
lfemur 4.5583127150290625 -5.153434576768117 -26.640185664918178
ltibia 22.526750111438513
lfoot -4.410210723030456 -5.313891621508203
ltoes -6.780016743654106
rfemur -28.091564046034897 0.47145663441550134 19.169627674555368
rtibia 53.674711540037634
rfoot -6.797123710639292 -1.9887588493696011
rtoes 3.578403098790357
lowerback 1.0 -1.5738114834998147 -3.0908911737998737
upperback -0.02184013101025456 -2.323647373384926 0.9311962333353854
thorax -5.152604016048774 -1.1334608699688473 3.0383034295279217
lowerneck -16.246325448824845 -2.925465842205489 -1.5190003037968207
upperneck 22.95489780205594 -3.686477633574526 0.5737749104015327
head 10.26805431862328 -1.8053827387617771 0.016153808277547088
lclavicle -1.9498527873584947e-15 -2.320215337558931e-16
lhumerus -27.18422187539795 -0.742593635427796 81.57919073679426
lradius 25.096011126475766
lwrist 4.614277443289151
lhand -26.95808461802937 23.987148736609754
lfingers nan
lthumb 0.001059756963809333 54.41489113257547
rclavicle -1.915801794753206e-15 -2.055716645795269e-16
rhumerus -31.740227304650478 -23.910082713607107 -77.14578856146898
rradius 31.44157990036658
rwrist 3.0251372070355202
rhand -18.32404529121421 1.0
rfingers nan
rthumb 8.428778863065288 -7.885727048483908
102
root 1.4346030496765507 17.859598197866035 53.47499993517327 -3.2686599421823668 -0.5286496712572961 1.9360959094446772
lfemur 6.966009021634115 -4.955725313128247 -26.65288818417081
ltibia 22.605684596376484
lfoot -3.2792150283564423 -5.339575393942653
ltoes -6.354689887405275
rfemur -27.75106830358236 0.9153970793900732 19.44526522147423
rtibia 48.743460509424025
rfoot -7.238990858271499 -1.8566235146950394
rtoes 2.8503396835483272
lowerback 1.0 -1.7674437465854536 -3.3728770041213347
upperback -0.03798814150118063 -2.5916449172627 1.1110492756590844
thorax -5.024904798399272 -1.24327811925478 3.4487043630234497
lowerneck -16.2416996242896 -2.8342811126917673 -1.609271397193567
upperneck 23.328034520457848 -3.5049305926973275 0.4268933163588669
head 10.367751435579079 -1.7465990668995002 0.003699694343374721
lclavicle -1.9563203753219986e-15 -2.354910356187487e-16
lhumerus -27.36865106985902 -0.602128876823337 81.6148451741915
lradius 24.566259748378688
lwrist 4.770984155177745
lhand -26.90601646569806 24.019599356542006
lfingers nan
lthumb 0.03716124114803154 54.400581949266865
rclavicle -1.9200321103839877e-15 -2.076846096632581e-16
rhumerus -32.05958603412157 -24.454578411371 -76.98439942734043
rradius 31.48117653095347
rwrist 3.0604530425143874
rhand -18.354196605033394 1.0
rfingers nan
rthumb 8.407922061382111 -7.9274568286169
103
root 1.4569801997547684 17.86091663048791 53.9895908193557 -3.2039437666236688 -0.7009144543151282 2.337142830187138
lfemur 8.74992362526664 -4.923248306668471 -26.872950389031075
ltibia 23.219925564028266
lfoot -2.594915810950889 -6.20821203776971
ltoes -5.073990169128821
rfemur -27.523988350901405 0.870331271401473 19.216655167559384
rtibia 43.4090439741292
rfoot -7.627536103067545 -1.671582380310718
rtoes 2.23560017783166
lowerback 1.0 -1.9328147161349842 -3.668848557531899
upperback -0.04735450855479456 -2.8029754842490178 1.264906440510441
thorax -4.886565865446158 -1.3386934885986599 3.695227902797629
lowerneck -16.185816821467974 -2.747764222450445 -1.7082137585195074
upperneck 23.70504132603014 -3.328266414178209 0.2686847450288951
head 10.460235855320995 -1.6910834964807533 -0.014997732874419467
lclavicle -1.962274546163934e-15 -2.3878295048485843e-16
lhumerus -27.65184392509761 -0.3174907288128801 81.68886687971143
lradius 23.99678420730487
lwrist 4.998494524850187
lhand -27.009663819450505 23.819793284105938
lfingers nan
lthumb -0.02519405005626507 54.25937420812818
rclavicle -1.9255012611457984e-15 -2.1098970619263799e-16
rhumerus -32.37986546378739 -25.06474556546628 -76.72699231221765
rradius 31.559994215492356
rwrist 3.1522980239037506
rhand -18.332156423940695 1.0
rfingers nan
rthumb 8.443427111958197 -7.857665440587383
104
root 1.4847361872235614 17.862220180426135 54.371814668239224 -3.1757115371440365 -0.7845346323741401 2.314298495248974
lfemur 9.689802462337035 -4.980876070779708 -26.682460890125938
ltibia 24.80609571496499
lfoot -1.9977100473978249 -5.57341423810724
ltoes -4.731172886715422
rfemur -26.69504054771592 0.937809065488254 19.735311541646578
rtibia 38.234843493458015
rfoot -8.020259869367461 -1.714893157191467
rtoes 1.7632592284817021
lowerback 1.0 -2.056811883088612 -3.654814398475471
upperback -0.08110896534270351 -2.9390536742221514 1.43078566628685
thorax -4.811233024023534 -1.4010775492142495 3.8248135418160984
lowerneck -16.13015341777208 -2.6881793491924215 -1.805139146729233
upperneck 24.00175855244514 -3.2004891253735614 0.11507872486996107
head 10.531239411827064 -1.652968960253346 -0.04466292437126884
lclavicle -1.966205136208069e-15 -2.411254384541263e-16
lhumerus -27.95824397628369 -0.010789530311115847 81.79172772057703
lradius 23.41369022325332
lwrist 5.338070103721515
lhand -27.010235986814777 23.855928227615976
lfingers nan
lthumb -0.014050773169618114 54.27483961290303
rclavicle -1.929673946238934e-15 -2.1375065198734748e-16
rhumerus -32.64279005476144 -25.636124725181837 -76.3580888648589
rradius 31.67029197552531
rwrist 3.274182701194593
rhand -18.34862497896186 1.0
rfingers nan
rthumb 8.411619220799832 -7.914660106647806
105
root 1.5048392532102803 17.86389601567936 54.50287041485952 -3.049371937186872 -0.863210625608496 1.6585277266438667
lfemur 9.841049792746055 -4.938687167990615 -25.810893850106687
ltibia 27.477805676356002
lfoot -2.501771391368518 -5.751335135333472
ltoes -3.865491878480563
rfemur -26.334476156606456 1.0833244731534784 20.569927023585006
rtibia 33.80828092662678
rfoot -8.386336879118312 -2.5706756959305466
rtoes 1.77589338905449
lowerback 1.0 -2.16532800229761 -3.2141026871835536
upperback -0.11927130487004112 -3.021267932202764 1.6173413790128295
thorax -4.801749358069301 -1.4390272998346423 3.873602064078345
lowerneck -16.088878793189743 -2.6439133953755753 -1.8584140375843912
upperneck 24.188055496971693 -3.1023363863397413 -0.031093433292291306
head 10.564256108691797 -1.6261309493552738 -0.07968571170544943
lclavicle -1.9686816948092838e-15 -2.427587753648031e-16
lhumerus -28.29163966096696 0.22840486400125748 81.8995823445112
lradius 22.858720087465144
lwrist 5.702879203695329
lhand -27.122027434884814 23.71629522033735
lfingers nan
lthumb -0.11762910151058104 54.12234144286917
rclavicle -1.932432834264157e-15 -2.1571401789133679e-16
rhumerus -32.83455842599484 -26.132910808508235 -75.9692555803023
rradius 31.79161298548939
rwrist 3.384127782492504
rhand -18.294938515615026 1.0
rfingers nan
rthumb 8.45770740475372 -7.829656999271045
106
root 1.5125792865867151 17.857046132901424 53.83223575334315 -3.0988631822606507 -1.1411427761069954 1.3219405138029048
lfemur 9.396384751643403 -4.701853541497886 -25.05016079130678
ltibia 31.004383542859685
lfoot -2.5749878498204684 -5.097143174974944
ltoes -3.4288417514315785
rfemur -24.956335370606453 1.4365703134398053 21.46281682023905
rtibia 30.283127640663768
rfoot -8.681374837631767 -4.23577237736091
rtoes 2.313664498330204
lowerback 1.0 -2.181018504735987 -2.9994471047610816
upperback -0.10996198791431677 -3.0410361807894697 1.6841070471707735
thorax -4.775497886148036 -1.4554561143535563 3.876989347576854
lowerneck -16.093493036717362 -2.628988427729675 -1.884144003870565
upperneck 24.21682815300143 -3.062566791990009 -0.14245920819728203
head 10.555229130183525 -1.618293758949059 -0.11494650197951084
lclavicle -1.97011961395333e-15 -2.438548019302365e-16
lhumerus -28.667046044605573 0.4046338873842972 81.9996611359113
lradius 22.372490175387824
lwrist 6.030255476986321
lhand -27.13878939960206 23.72980161937798
lfingers nan
lthumb -0.11294246523577667 54.154048793095946
rclavicle -1.9347073070280726e-15 -2.175240481350774e-16
rhumerus -32.873265959676935 -26.451380050824735 -75.61045596060823
rradius 31.90224029500811
rwrist 3.4625892756690515
rhand -18.31267181392983 1.0
rfingers nan
rthumb 8.415115844821992 -7.907212110478909
